<svg width="20" height="22" viewBox="0 0 20 22" fill="none" xmlns="http://www.w3.org/2000/svg">
<path d="M4.5 1.83337L1.75 5.50004V18.3334C1.75 18.8196 1.94315 19.2859 2.28697 19.6297C2.63079 19.9736 3.0971 20.1667 3.58333 20.1667H16.4167C16.9029 20.1667 17.3692 19.9736 17.713 19.6297C18.0568 19.2859 18.25 18.8196 18.25 18.3334V5.50004L15.5 1.83337H4.5Z" stroke="white" stroke-width="2" stroke-linecap="round" stroke-linejoin="round"/>
<path d="M1.75 5.5H18.25" stroke="white" stroke-width="2" stroke-linecap="round" stroke-linejoin="round"/>
<path d="M13.6657 9.16663C13.6657 10.1391 13.2794 11.0717 12.5917 11.7594C11.9041 12.447 10.9715 12.8333 9.999 12.8333C9.02654 12.8333 8.09391 12.447 7.40628 11.7594C6.71864 11.0717 6.33234 10.1391 6.33234 9.16663" stroke="white" stroke-width="2" stroke-linecap="round" stroke-linejoin="round"/>
</svg>
