<svg width="43" height="55" viewBox="0 0 43 55" fill="none" xmlns="http://www.w3.org/2000/svg">
<mask id="mask0_2_410" style="mask-type:luminance" maskUnits="userSpaceOnUse" x="6" y="9" width="31" height="39">
<path d="M6 9H37V47.6056H6V9Z" fill="white"/>
</mask>
<g mask="url(#mask0_2_410)">
<path fill-rule="evenodd" clip-rule="evenodd" d="M21.5 19.1671C24.5567 19.1671 27.0357 16.894 27.0357 14.0911C27.0357 11.2882 24.5567 9.01508 21.5 9.01508C18.4433 9.01508 15.9643 11.2882 15.9643 14.0911C15.9643 16.894 18.4433 19.1671 21.5 19.1671ZM26.4031 46.3127L22.5083 38.4569C22.1151 37.6636 20.8849 37.6636 20.4917 38.4569L16.5969 46.3127C16.2114 47.0908 15.3657 47.5905 14.4343 47.5905C12.935 47.5905 11.8103 46.3318 12.1047 44.9836L15.4887 29.467C15.7721 28.1691 15.1076 26.8511 13.8445 26.2076L7.18952 22.8186C6.45582 22.4446 6 21.7338 6 20.9637C6 19.5542 7.4707 18.5368 8.94909 18.9238L18.7519 21.4925C20.5477 21.963 22.4523 21.963 24.2481 21.4925L34.0509 18.9238C35.5293 18.5368 37 19.5542 37 20.9637C37 21.7338 36.5442 22.4446 35.8105 22.8186L29.1555 26.2076C27.8924 26.8511 27.2279 28.1691 27.5113 29.467L30.8953 44.9836C31.1897 46.3318 30.065 47.5905 28.5657 47.5905C27.6343 47.5905 26.7886 47.0908 26.4031 46.3127Z" fill="#FF903F"/>
</g>
</svg>
