<svg width="48" height="48" viewBox="0 0 48 48" fill="none" xmlns="http://www.w3.org/2000/svg">
<g filter="url(#filter0_d_2_377)">
<rect width="48" height="48" rx="2" fill="#242424"/>
<mask id="mask0_2_377" style="mask-type:luminance" maskUnits="userSpaceOnUse" x="29" y="8" width="12" height="12">
<path d="M29.0156 8.23621H40.521V19.4383H29.0156V8.23621Z" fill="white"/>
</mask>
<g mask="url(#mask0_2_377)">
<path d="M38.2613 11.5889H31.4835V10.471H38.2613V11.5889ZM38.2613 13.8246H37.1323V12.7068H38.2613V13.8246ZM36.0023 13.8246H31.4835V12.7068H36.0023V13.8246ZM38.8267 8.23621H30.919C29.9834 8.23621 29.2246 8.98686 29.2246 9.91255V14.3831C29.2246 15.3088 29.9834 16.0595 30.919 16.0595H32.4256L31.8438 19.4293L37.2928 16.0595H38.8267C39.7596 16.0595 40.5211 15.3088 40.5211 14.3831V9.91255C40.5211 8.98686 39.7596 8.23621 38.8267 8.23621Z" fill="#FF903F"/>
</g>
<path d="M28.0943 29.4702C29.0272 29.4702 29.7887 28.7196 29.7887 27.7939V23.3242H28.6588V27.7939C28.6588 28.1024 28.4052 28.3533 28.0943 28.3533H26.9187C27.3045 27.6937 27.5298 26.9322 27.5298 26.1175V23.3017C25.8326 23.1772 24.2512 22.4833 23.011 21.3159C21.7689 22.4833 20.1866 23.1772 18.4922 23.3017V26.1175C18.4922 28.5824 20.5177 30.5881 23.011 30.5881C24.1518 30.5881 25.1933 30.1622 25.9895 29.4702H28.0943Z" fill="#FF903F"/>
<path d="M23.012 14.9417C19.5858 14.9417 16.7988 17.6989 16.7988 21.0885V23.0753C16.973 22.9742 17.1627 22.8957 17.3633 22.8434V22.2064H17.9288C19.5986 22.2064 21.1671 21.5622 22.35 20.3947L23.012 19.7397L23.6741 20.3947C24.8542 21.5622 26.4255 22.2064 28.0953 22.2064H29.2253V21.0885C29.2253 17.6989 26.4365 14.9417 23.012 14.9417Z" fill="#FF903F"/>
<path d="M17.3633 25.9632V24.0378C17.0259 24.2318 16.7988 24.5873 16.7988 25.0005C16.7988 25.4128 17.0259 25.7683 17.3633 25.9632Z" fill="#FD8F3F"/>
<path d="M29.407 33.0179L25.4591 32.3087L23.0105 34.7312L20.561 32.3087L16.6121 33.0179C15.5971 33.201 14.7654 33.9147 14.4389 34.8837L14.4316 34.899L15.6856 36.1396L18.5492 33.5745L22.3065 37.2935H32.3919L31.5802 34.8837C31.2556 33.9147 30.4211 33.201 29.407 33.0179Z" fill="#FF903F"/>
<path d="M21.3164 31.4479V31.474L23.0108 33.1513L24.7053 31.474V31.4479C24.169 31.6166 23.6 31.7059 23.0108 31.7059C22.419 31.7059 21.8499 31.6166 21.3164 31.4479Z" fill="#FD8F3F"/>
<path d="M7.80078 27.6026L11.9885 31.7447L13.4486 30.3003L9.26084 26.1572L7.80078 27.6026Z" fill="#F48A3D"/>
<mask id="mask1_2_377" style="mask-type:luminance" maskUnits="userSpaceOnUse" x="5" y="9" width="23" height="16">
<path d="M5.55249 9.73752H27.8482V24.2887H5.55249V9.73752Z" fill="white"/>
</mask>
<g mask="url(#mask1_2_377)">
<path d="M10.8748 22.1252L10.2948 21.1697L8.76363 22.0773C10.365 15.6318 16.2235 11.0304 23.0122 11.0304C24.495 11.0304 25.9596 11.2488 27.3632 11.6782L27.696 10.6109C26.1849 10.148 24.609 9.91257 23.0122 9.91257C15.6316 9.91257 9.27342 14.9633 7.62003 22.0079L6.55029 20.2413L5.58179 20.8178L7.56713 24.0902L10.8748 22.1252Z" fill="#F68B3D"/>
</g>
<mask id="mask2_2_377" style="mask-type:luminance" maskUnits="userSpaceOnUse" x="34" y="18" width="7" height="18">
<path d="M34.3867 18.5144H40.4549V35.6063H34.3867V18.5144Z" fill="white"/>
</mask>
<g mask="url(#mask2_2_377)">
<path d="M34.9516 21.9185L35.921 22.4941L36.9087 20.8638C37.4294 22.3696 37.6966 23.944 37.6966 25.559C37.6966 28.8837 36.532 32.1318 34.4199 34.7076L35.2963 35.4105C37.5735 32.6361 38.8265 29.1391 38.8265 25.559C38.8265 23.8502 38.5466 22.1802 38.0058 20.5823L39.6646 21.5666L40.2446 20.6103L36.9379 18.6461L34.9516 21.9185Z" fill="#F68B3D"/>
</g>
<path d="M16.875 36.5798L21.071 40.7319L22.697 39.2586L18.512 35.1173L16.875 36.5798Z" fill="#F68B3D"/>
<mask id="mask3_2_377" style="mask-type:luminance" maskUnits="userSpaceOnUse" x="5" y="28" width="16" height="15">
<path d="M5.55249 28.2152H20.3774V42.8819H5.55249V28.2152Z" fill="white"/>
</mask>
<g mask="url(#mask3_2_377)">
<path d="M15.2696 37.3053L11.2186 33.2976C11.0071 33.09 11.0052 32.7598 11.1949 32.5424L7.00263 28.3921L6.73998 28.652C5.99217 29.39 5.58179 30.3725 5.58179 31.4182C5.58179 32.463 5.99217 33.4455 6.73998 34.1835L14.374 41.7361C15.12 42.4741 16.1132 42.8819 17.1692 42.8819C18.2244 42.8819 19.2175 42.4741 19.9471 41.7533L20.2389 41.4889L16.0329 37.3269C15.8168 37.5101 15.473 37.5083 15.2696 37.3053Z" fill="#F68B3D"/>
</g>
</g>
<defs>
<filter id="filter0_d_2_377" x="-4" y="0" width="56" height="56" filterUnits="userSpaceOnUse" color-interpolation-filters="sRGB">
<feFlood flood-opacity="0" result="BackgroundImageFix"/>
<feColorMatrix in="SourceAlpha" type="matrix" values="0 0 0 0 0 0 0 0 0 0 0 0 0 0 0 0 0 0 127 0" result="hardAlpha"/>
<feOffset dy="4"/>
<feGaussianBlur stdDeviation="2"/>
<feComposite in2="hardAlpha" operator="out"/>
<feColorMatrix type="matrix" values="0 0 0 0 0 0 0 0 0 0 0 0 0 0 0 0 0 0 0.5 0"/>
<feBlend mode="normal" in2="BackgroundImageFix" result="effect1_dropShadow_2_377"/>
<feBlend mode="normal" in="SourceGraphic" in2="effect1_dropShadow_2_377" result="shape"/>
</filter>
</defs>
</svg>
