<svg width="67" height="49" viewBox="0 0 67 49" fill="none" xmlns="http://www.w3.org/2000/svg">
<mask id="mask0_207_40" style="mask-type:luminance" maskUnits="userSpaceOnUse" x="11" y="42" width="46" height="7">
<path d="M11.4199 42.4521H56.3421V48.0382H11.4199V42.4521Z" fill="white"/>
</mask>
<g mask="url(#mask0_207_40)">
<path d="M11.7148 45.3253C14.3545 46.6001 22.351 48.0234 33.9797 48.0385C45.6084 48.0234 53.6048 46.6001 56.2426 45.3253C53.6105 44.0431 45.6102 42.6141 33.9797 42.6104C22.3491 42.6141 14.3489 44.0431 11.7148 45.3253Z" fill="#FF903F"/>
</g>
<mask id="mask1_207_40" style="mask-type:luminance" maskUnits="userSpaceOnUse" x="0" y="0" width="67" height="46">
<path d="M0.792969 0.0258789H66.9686V45.3403H0.792969V0.0258789Z" fill="white"/>
</mask>
<g mask="url(#mask1_207_40)">
<path d="M59.4629 27.6891C58.1157 29.1387 56.8402 30.2969 55.5967 31.1919C53.5872 30.624 51.4306 30.1427 49.1531 29.7592C49.4852 29.3794 49.8192 28.9864 50.1494 28.5709C52.2174 25.98 54.0835 22.7216 54.0986 19.6043C54.1099 18.1678 53.8797 16.8893 53.4797 15.7649C53.491 15.7386 53.5061 15.7123 53.525 15.686C53.4854 15.6032 53.4608 15.5111 53.4457 15.4171C55.0609 14.6613 56.7213 14.1987 58.2912 14.1987C59.4365 14.1987 60.461 14.4751 61.2762 14.9978C61.3479 15.0429 61.4214 15.0881 61.4913 15.1388C62.3158 15.7367 63.3442 17.0905 63.5253 18.9349C63.5989 19.6757 63.5309 20.4541 63.3347 21.2588C62.8272 22.7216 61.6913 24.7616 60.1912 26.8637C59.9591 27.1382 59.7176 27.4127 59.4629 27.6891ZM44.836 29.1556C43.9945 29.0597 43.1397 28.9789 42.2812 28.9074C41.1604 28.8115 40.0283 28.7363 38.8868 28.6799C38.0566 28.6404 36.5886 28.5953 35.7508 28.5746C35.8074 24.9271 35.6622 21.2287 36.0471 18.9443C36.615 15.5543 40.0132 13.2699 43.036 13.2079C44.7945 13.1778 46.755 13.4673 48.1984 14.6406C48.3569 14.7684 48.5116 14.9057 48.6569 15.0561C49.2456 15.669 49.7135 16.4756 49.9777 17.5154C50.1305 18.1246 50.2154 18.8108 50.2117 19.5892C50.2117 19.7434 50.1777 19.9145 50.1607 20.0875C50.1154 20.5575 49.9777 21.0934 49.6494 21.7928C48.9022 23.3966 47.7286 25.3746 46.3587 27.2115C45.8587 27.8827 45.3436 28.5333 44.836 29.1556ZM29.0695 28.6799C27.9298 28.7363 26.7977 28.8115 25.6769 28.9074C24.8184 28.9789 23.9637 29.0597 23.1221 29.1556C22.6146 28.5333 22.0995 27.8827 21.5994 27.2115C20.2296 25.3746 19.056 23.3966 18.3088 21.7928C17.9805 21.0934 17.8427 20.5575 17.7974 20.0875C17.7805 19.9145 17.7465 19.7434 17.7465 19.5892C17.7408 18.8108 17.8257 18.1246 17.9805 17.5154C18.2446 16.4756 18.7126 15.669 19.3013 15.0561C19.4466 14.9057 19.5994 14.7684 19.7579 14.6406C21.2032 13.4673 23.1636 13.1778 24.9222 13.2079C27.9449 13.2699 31.3413 15.5543 31.9111 18.9443C32.296 21.2287 32.1507 24.9271 32.2073 28.5746C31.3696 28.5953 29.9016 28.6404 29.0695 28.6799ZM12.3614 31.1919C11.118 30.2969 9.84248 29.1387 8.49527 27.6891C8.24054 27.4127 7.99902 27.1382 7.76694 26.8637C6.26689 24.7616 5.13101 22.7216 4.62345 21.2588C4.42721 20.4541 4.35929 19.6757 4.43287 18.9349C4.61401 17.0905 5.64235 15.7367 6.4669 15.1388C6.53483 15.0881 6.60841 15.0429 6.682 14.9978C7.49712 14.4751 8.52168 14.1987 9.667 14.1987C11.235 14.1987 12.8973 14.6613 14.5124 15.4171C14.4973 15.5111 14.4728 15.6032 14.4332 15.686C14.4502 15.7123 14.4672 15.7386 14.4785 15.7649C14.0785 16.8893 13.8483 18.1678 13.8596 19.6043C13.8747 22.7216 15.7408 25.98 17.8088 28.5709C18.139 28.9864 18.4729 29.3794 18.805 29.7592C16.5276 30.1427 14.3709 30.624 12.3614 31.1919ZM61.9535 29.9716C70.1481 21.1404 66.4518 14.5691 63.4913 12.422C63.1366 12.1644 62.7592 11.9369 62.363 11.7394C61.1573 11.1434 59.7742 10.8332 58.2912 10.8332C58.1666 10.8332 58.0421 10.837 57.9157 10.8407C55.8043 10.9122 53.6231 11.574 51.5532 12.6006C51.5193 12.5667 51.4891 12.5348 51.4494 12.4953C49.3079 10.3406 46.2247 9.4569 42.8812 9.55843C40.7529 9.62611 38.8056 10.3838 37.1433 11.6248C38.0452 10.8576 38.5887 9.78029 38.5377 8.58825C38.4396 6.505 36.7018 4.8354 34.5527 4.52893C34.5508 4.16229 34.547 3.37449 34.5451 3.00785C35.1319 3.00598 35.7206 2.99845 36.3093 2.98717V1.93051C35.7169 1.94367 35.1244 1.95119 34.5319 1.95307C34.5282 1.31193 34.5225 0.668903 34.5149 0.0277591C34.3376 0.0277591 34.1583 0.027759 33.9791 0.0258789C33.7998 0.027759 33.6206 0.0277591 33.4413 0.0277591C33.4357 0.668903 33.43 1.31193 33.4243 1.95307C32.9036 1.95119 32.3828 1.94367 31.8601 1.93239V2.99093C32.479 3.00597 33.013 3.01162 33.413 3.00785C33.4093 3.37449 33.4074 4.16229 33.4055 4.52893C31.2564 4.8354 29.5186 6.505 29.4204 8.58825C29.3695 9.78029 29.9129 10.8576 30.8148 11.6248C29.1525 10.3838 27.2034 9.62611 25.0769 9.55843C21.7315 9.4569 18.6503 10.3406 16.5087 12.4953C16.4691 12.5348 16.4389 12.5667 16.4049 12.6006C14.3351 11.574 12.1539 10.9122 10.0425 10.8407C9.91607 10.837 9.79153 10.8332 9.667 10.8332C8.18394 10.8332 6.80087 11.1434 5.59518 11.7394C5.19894 11.9369 4.82157 12.1644 4.46684 12.422C1.50637 14.5691 -2.19186 21.1404 6.00274 29.9716C5.74801 29.6952 5.50461 29.4226 5.27252 29.1537C5.25554 29.1631 5.23856 29.1688 5.22158 29.1782C6.30652 30.5263 7.39334 31.7108 8.26318 32.5531C8.2462 32.5588 8.22733 32.5663 8.21035 32.5738C10.1387 34.108 9.51039 35.6291 10.2104 37.1389H10.0727C10.0764 37.1784 10.0821 37.2197 10.0859 37.2611C9.90097 37.2912 9.71417 37.3175 9.52926 37.3476C9.31605 38.0621 9.11038 38.784 8.91603 39.5117C9.2802 40.1284 9.64625 40.7432 10.0123 41.3524C10.1802 41.3167 10.3482 41.2866 10.5161 41.2527C10.7368 43.2645 10.9406 45.0996 10.9406 45.0996H10.9878C11.7331 43.2119 21.7353 41.7153 33.9791 41.7115C46.2229 41.7153 56.2251 43.2119 56.9704 45.0996H57.0156C57.0156 45.0996 57.2213 43.2645 57.4421 41.2527C57.61 41.2866 57.7779 41.3167 57.944 41.3524C58.3119 40.7432 58.678 40.1284 59.0421 39.5117C58.8478 38.784 58.6421 38.0621 58.4289 37.3476C58.244 37.3175 58.0572 37.2912 57.8723 37.2611C57.8761 37.2197 57.8817 37.1784 57.8855 37.1389H57.7459C58.4459 35.6291 57.8194 34.108 59.7478 32.5738C59.7308 32.5663 59.712 32.5588 59.695 32.5531C60.5648 31.7108 61.6516 30.5263 62.7366 29.1782C62.7196 29.1688 62.7007 29.1631 62.6856 29.1537C62.4536 29.4226 62.2102 29.6952 61.9535 29.9716Z" fill="#FF903F"/>
</g>
</svg>
