<svg width="52" height="55" viewBox="0 0 52 55" fill="none" xmlns="http://www.w3.org/2000/svg">
<mask id="mask0_208_41" style="mask-type:luminance" maskUnits="userSpaceOnUse" x="23" y="0" width="29" height="29">
<path d="M23.0527 0H51.6379V28.4019H23.0527V0Z" fill="white"/>
</mask>
<g mask="url(#mask0_208_41)">
<path d="M48.877 5.80064V5.74481C48.031 4.61818 47.0146 3.66047 45.8307 2.76003V2.81586C44.8716 3.54881 43.9139 4.3376 43.0106 5.12495C42.6169 4.90019 42.2776 4.73127 41.9398 4.56235C41.4888 4.3376 41.0364 4.11141 40.5297 3.99832C40.3608 3.94249 40.1904 3.88666 40.0215 3.88666C39.9084 2.64693 39.7967 1.40864 39.6264 0.168923C39.0638 0.0558303 38.4997 0.0558305 37.8785 0H36.9766C36.4125 0.0558305 35.9043 0.0558303 35.3976 0.168923C35.2287 1.35138 35.1156 2.5911 35.0583 3.8294C34.8335 3.8294 34.6646 3.88666 34.4384 3.94249C34.3826 3.94249 34.3253 3.94249 34.2695 3.99832C33.8186 4.11141 33.3662 4.3376 32.9153 4.56235C32.5216 4.73127 32.1823 4.90019 31.8445 5.12495C30.8853 4.3376 29.9835 3.60464 29.0243 2.81586L28.9685 2.76003C28.7423 2.92895 28.5161 3.09787 28.3472 3.2668C27.9521 3.54881 27.6142 3.88666 27.3322 4.2245C26.824 4.67544 26.4303 5.23804 25.978 5.80064H26.0352C26.7682 6.75835 27.5584 7.66022 28.3472 8.61793C28.1224 8.95577 27.8963 9.34945 27.7273 9.6873C27.5011 10.1382 27.3322 10.645 27.2191 11.0959C27.106 11.3207 27.0502 11.5469 27.0502 11.7158C25.8091 11.8275 24.5693 11.9406 23.384 12.1095C23.2709 12.6721 23.2151 13.2361 23.2151 13.856C23.2151 14.7006 23.2709 15.5452 23.4413 16.334C24.6252 16.4471 25.8091 16.5587 27.0502 16.6718C27.0502 16.8966 27.106 17.1228 27.2191 17.2917C27.3322 17.7985 27.5011 18.2494 27.7273 18.7562C27.9521 19.1498 28.1224 19.5435 28.4045 19.8828C27.6142 20.8391 26.824 21.7409 26.0911 22.6986C26.9371 23.8811 27.9521 24.8946 29.1374 25.7393V25.6834C30.0393 24.9519 30.9984 24.1631 31.9003 23.3743H31.9576C32.2396 23.5433 32.5774 23.7122 32.8594 23.8811C33.3662 24.1059 33.9302 24.332 34.4384 24.4437C34.6646 24.501 34.8335 24.5568 35.0025 24.6126C35.1156 25.7965 35.2287 27.0348 35.3976 28.2745C35.9043 28.3304 36.4125 28.3876 36.9766 28.3876H37.8226C38.4425 28.3876 39.0638 28.3304 39.6836 28.2173C39.7967 27.0348 39.9084 25.7965 40.0215 24.5568C40.1904 24.501 40.3608 24.4437 40.5297 24.3879C41.0364 24.2748 41.4888 24.1059 41.9398 23.8811C42.3349 23.7122 42.7285 23.4874 43.1236 23.2054C43.1236 23.2612 43.1236 23.2612 43.1795 23.2612C44.0828 24.05 45.0419 24.8388 45.9996 25.5703C46.1686 25.4587 46.3389 25.3456 46.5637 25.1767C46.9029 24.8946 47.2408 24.5568 47.5228 24.219C48.031 23.7122 48.5378 23.1482 48.9887 22.5297C48.1999 21.572 47.4097 20.6143 46.6209 19.7124V19.6566C46.7898 19.3746 46.9588 19.0367 47.1277 18.6989C47.2966 18.2494 47.5228 17.7985 47.6359 17.3475C47.6359 17.2917 47.6359 17.2344 47.6917 17.2344C47.6917 17.0097 47.749 16.8407 47.8048 16.7277C49.046 16.616 50.2857 16.5029 51.471 16.3898C51.5841 15.8272 51.5841 15.2632 51.6399 14.7006V13.7429C51.5841 13.1803 51.5841 12.6162 51.471 12.0536C50.2857 11.9406 49.046 11.8275 47.8048 11.7158C47.749 11.5469 47.6917 11.378 47.6917 11.209C47.5228 10.7008 47.3539 10.1941 47.1277 9.6873C46.9588 9.34945 46.7326 8.95577 46.5637 8.61793C47.2966 7.71605 48.0868 6.75835 48.877 5.80064ZM33.8186 10.4761C34.8335 9.40528 36.0733 8.89851 37.4833 8.95577C38.9507 8.89851 40.1346 9.40528 41.2068 10.4761C42.2218 11.4896 42.7285 12.7293 42.7285 14.1366C42.7285 15.601 42.2218 16.7849 41.2068 17.8543C40.1346 18.8678 38.9507 19.3746 37.4833 19.3746C36.0733 19.3746 34.8335 18.8678 33.8186 17.8543C32.8022 16.7849 32.2954 15.601 32.2954 14.1366C32.2954 12.7293 32.8022 11.4896 33.8186 10.4761Z" fill="#FF903F"/>
</g>
<path d="M37.7683 10C36.5148 10 35.4897 10.4532 34.5789 11.302C33.7244 12.2083 33.2676 13.2268 33.2676 14.4712C33.2676 15.7171 33.7244 16.7356 34.5789 17.6419C35.4897 18.5468 36.5148 19 37.7683 19C39.0218 19 40.0469 18.5468 40.9577 17.6419C41.8685 16.7356 42.2676 15.7171 42.2676 14.4712C42.2676 13.2268 41.8685 12.2083 40.9577 11.302C40.0469 10.4532 39.0218 10 37.7683 10ZM35.3755 12.0946C36.0594 11.4717 36.856 11.1322 37.7683 11.1322C38.6791 11.1322 39.4772 11.4717 40.1596 12.0946C40.8435 12.7737 41.1283 13.5102 41.1283 14.4712C41.1283 15.4337 40.8435 16.2263 40.1596 16.8493C39.4772 17.5283 38.6791 17.8678 37.7683 17.8678C36.856 17.8678 36.0594 17.5283 35.3755 16.8493C34.7495 16.2263 34.4069 15.4337 34.4069 14.4712C34.4069 13.5663 34.7495 12.7737 35.3755 12.0946Z" fill="black"/>
<mask id="mask1_208_41" style="mask-type:luminance" maskUnits="userSpaceOnUse" x="0" y="18" width="37" height="37">
<path d="M0 18.1406H36.6133V54.9715H0V18.1406Z" fill="white"/>
</mask>
<g mask="url(#mask1_208_41)">
<path d="M23.0459 18.9254C22.8197 18.8123 22.6508 18.7564 22.4819 18.7564C21.8047 18.5875 21.1276 18.4744 20.4519 18.3613C19.8306 19.8831 19.3239 21.3461 18.8157 22.8106H17.8007C17.1236 22.8678 16.5037 22.9237 15.8824 23.0368C15.3756 23.0926 14.8674 23.2615 14.3607 23.4304C13.4574 22.1349 12.4997 20.8393 11.5964 19.6011L11.5405 19.5438C11.2027 19.6569 10.8634 19.77 10.5814 19.9389C10.0174 20.1636 9.51058 20.4457 9.00238 20.7835C8.2136 21.1772 7.47921 21.6854 6.80352 22.3038V22.3611C7.47921 23.7683 8.10051 25.1769 8.77763 26.5841C8.38252 26.9793 8.04324 27.3171 7.7054 27.768C7.25446 28.2175 6.85935 28.7816 6.52151 29.3442C6.35115 29.5704 6.23949 29.7951 6.1264 30.0771C4.5474 29.7951 2.9684 29.5131 1.3894 29.2883C1.10739 29.964 0.825372 30.6397 0.599187 31.3727C0.373002 32.4993 0.148249 33.5687 0.0351562 34.6395L4.43431 36.3287V37.1175C4.43431 37.7374 4.49014 38.413 4.66049 39.0887C4.71632 39.6513 4.88525 40.2154 5.05417 40.778C3.75719 41.6798 2.51603 42.5803 1.21905 43.538C1.89617 45.2272 2.85531 46.8048 3.98337 48.2693H4.0392C5.44928 47.5936 6.85935 46.9737 8.32526 46.298C8.66454 46.6359 9.00238 46.9179 9.34023 47.2557C9.84843 47.7067 10.4683 48.1003 11.1454 48.494C11.3143 48.6071 11.5405 48.7202 11.7667 48.8891C11.4847 50.4094 11.2585 51.987 11.0323 53.5631C11.6536 53.8451 12.2735 54.0699 12.9506 54.2403C13.1195 54.2961 13.4574 54.4092 14.0214 54.5208C14.8116 54.747 15.6018 54.8587 16.3348 54.9718C16.9546 53.4515 17.5187 51.987 18.0269 50.4653H18.7598C19.4355 50.4653 20.0568 50.4094 20.6767 50.2963C21.2407 50.1847 21.8047 50.0158 22.3688 49.8468C22.3688 49.8468 22.3688 49.9027 22.426 49.9027C23.3279 51.1982 24.287 52.4938 25.1889 53.7893C25.4709 53.6204 25.7529 53.5073 25.9777 53.3942C26.5417 53.1695 27.0499 52.8874 27.5581 52.6069C28.4042 52.0987 29.193 51.5361 29.9259 50.9162C29.3061 49.4517 28.6289 48.0445 27.9518 46.58C28.2911 46.2422 28.5731 45.9043 28.9109 45.5665C29.3061 45.0583 29.7012 44.4957 30.039 43.9889C30.039 43.9331 30.0948 43.8758 30.0948 43.82C30.2079 43.6511 30.321 43.4249 30.4341 43.256C32.0131 43.538 33.5921 43.7627 35.1711 44.0448C35.4531 43.3691 35.6793 42.6934 35.9041 41.9604C35.9613 41.7915 36.0172 41.6226 36.073 41.3978C36.1302 41.2289 36.1302 41.06 36.2433 40.8352C36.355 40.1023 36.5254 39.3708 36.5812 38.6936C35.1153 38.0752 33.5921 37.5684 32.1262 37.0044V36.3287C32.1262 35.653 32.0689 34.9201 31.9 34.2444C31.8442 33.7376 31.6753 33.2308 31.5622 32.7241C32.8592 31.8236 34.1561 30.8659 35.3973 29.9082H35.4531C34.776 28.2175 33.8741 26.6414 32.633 25.1769C31.1671 25.7968 29.757 26.4725 28.3469 27.1482C27.9518 26.7545 27.5581 26.3594 27.163 26.0216C26.6548 25.6279 26.1481 25.2328 25.584 24.9522C25.4151 24.7818 25.1889 24.6702 25.02 24.5571C25.2447 22.9795 25.5268 21.4034 25.7529 19.8258C25.0758 19.5438 24.3429 19.2632 23.6099 19.037C23.441 18.9812 23.2148 18.9254 23.0459 18.9254ZM12.5555 39.9892C11.5964 38.3558 11.3716 36.6666 11.8784 34.8642C12.3293 33.0619 13.4015 31.7105 15.0378 30.7528C16.6168 29.8509 18.3647 29.6262 20.1126 30.0771C21.9178 30.5839 23.3279 31.5974 24.2298 33.2308C25.1889 34.8642 25.4151 36.5535 24.9069 38.3558C24.456 40.1581 23.3837 41.5109 21.8047 42.4114C20.1126 43.3691 18.4205 43.5938 16.6726 43.0871C14.8674 42.6375 13.4574 41.5667 12.5555 39.9892Z" fill="#FF903F"/>
</g>
<path d="M12.5219 35.1219C12.0556 36.5653 12.2303 37.9557 13.0475 39.2387H13.1052C13.9224 40.5761 15.1467 41.378 16.7219 41.8061C18.2971 42.1799 19.813 42.0195 21.2712 41.2706C22.7294 40.4687 23.6044 39.3991 24.0707 37.9557V37.9027C24.4793 36.4579 24.2454 35.0675 23.4297 33.7845C22.6125 32.4484 21.3882 31.5922 19.813 31.2184C18.2378 30.7903 16.6642 31.0037 15.2637 31.7525C13.8055 32.5014 12.9305 33.6241 12.5219 35.1219ZM16.0217 32.9826C17.1305 32.3941 18.2378 32.2337 19.4044 32.5544C20.571 32.8222 21.5051 33.4637 22.1462 34.4803C22.7872 35.4426 22.9041 36.5123 22.6125 37.5819C22.2631 38.6515 21.5629 39.5064 20.5132 40.0406V40.095C19.4044 40.6291 18.2971 40.7895 17.1305 40.4687C15.9047 40.2023 15.0313 39.5595 14.3888 38.5442C13.8055 37.5819 13.6308 36.5653 13.9224 35.4426C14.2718 34.373 14.972 33.5711 16.0217 32.9826Z" fill="black"/>
</svg>
