<svg width="75" height="64" viewBox="0 0 75 64" fill="none" xmlns="http://www.w3.org/2000/svg">
<mask id="mask0_2_501" style="mask-type:luminance" maskUnits="userSpaceOnUse" x="57" y="19" width="10" height="5">
<path d="M57.1797 19.1914H66.4128V23.3039H57.1797V19.1914Z" fill="white"/>
</mask>
<g mask="url(#mask0_2_501)">
<path d="M57.8833 23.0136L57.5156 21.3991L66.0188 19.4688L66.3932 21.0912L57.8833 23.0136Z" fill="#FF903F"/>
</g>
<path d="M60.6281 9.24097L61.6743 10.5408L54.8552 15.9264L53.8104 14.6252L60.6281 9.24097Z" fill="#FF903F"/>
<path d="M52.8145 3.06286L51.3007 2.34131L47.5215 10.1191L49.0286 10.8406L52.8145 3.06286Z" fill="#FF903F"/>
<mask id="mask1_2_501" style="mask-type:luminance" maskUnits="userSpaceOnUse" x="39" y="0" width="3" height="9">
<path d="M39.5331 0.103027H41.6092V8.91026H39.5331V0.103027Z" fill="white"/>
</mask>
<g mask="url(#mask1_2_501)">
<path d="M39.8712 0.132446H41.5446V8.77502H39.8712V0.132446Z" fill="#FF903F"/>
</g>
<path d="M33.8924 10.1191L30.1146 2.34131L28.5994 3.06286L32.3853 10.8406L33.8924 10.1191Z" fill="#FF903F"/>
<path d="M20.7917 9.23926L27.6053 14.6288L26.5591 15.93L19.7441 10.5391L20.7917 9.23926Z" fill="#FF903F"/>
<mask id="mask2_2_501" style="mask-type:luminance" maskUnits="userSpaceOnUse" x="15" y="19" width="9" height="5">
<path d="M15.0291 19.1914H23.9621V23.3039H15.0291V19.1914Z" fill="white"/>
</mask>
<g mask="url(#mask2_2_501)">
<path d="M23.8985 21.3989L15.3967 19.4685L15.0291 21.091L23.5309 23.0134L23.8985 21.3989Z" fill="#FF903F"/>
</g>
<path d="M35.3924 47.2755L46.6421 45.2595C46.6556 45.1229 46.6637 44.9797 46.6637 44.8378V43.7588L34.8652 45.8659C34.9666 46.3679 35.1477 46.8391 35.3924 47.2755Z" fill="#FF903F"/>
<path d="M34.7598 44.7952L46.665 42.6654V41.1714L34.7598 43.2945V44.7952Z" fill="#FF903F"/>
<mask id="mask3_2_501" style="mask-type:luminance" maskUnits="userSpaceOnUse" x="36" y="46" width="11" height="6">
<path d="M36.0723 46.2651H46.4529V51.5088H36.0723V46.2651Z" fill="white"/>
</mask>
<g mask="url(#mask3_2_501)">
<path d="M46.4197 46.3965L36.0918 48.2412C36.4311 48.6134 36.8203 48.9279 37.261 49.185V51.4795H44.1692V49.185C45.2221 48.5558 46.0304 47.5692 46.4197 46.3965Z" fill="#FF903F"/>
</g>
<path d="M54.1495 26.0523C54.1495 18.6962 48.1347 12.735 40.7074 12.735C33.295 12.735 27.2734 18.6962 27.2734 26.0523C27.2734 31.2919 30.3227 35.8166 34.7588 37.9974V42.2075L46.6641 40.0777V37.9974C51.0989 35.8166 54.1495 31.2919 54.1495 26.0523Z" fill="#FF903F"/>
</svg>
