<svg width="76" height="68" viewBox="0 0 76 68" fill="none" xmlns="http://www.w3.org/2000/svg">
<path d="M56.1143 37.1406C55.5846 40.9121 53.9631 44.5954 51.1613 47.1911C48.517 49.6523 45.0632 50.7979 41.5378 50.7715C41.5469 50.6107 41.5508 50.4354 41.5508 50.2521C41.5469 49.7683 41.5118 49.2858 41.4363 48.8073C41.3829 48.4751 41.3127 48.1495 41.2294 47.8357C41.6875 47.0883 42.2561 46.408 42.9211 45.8043C44.3097 44.5414 45.9351 43.6107 47.416 42.4796C45.7542 43.4551 44.0234 44.2869 42.4448 45.4061C41.8775 45.8082 41.3348 46.2564 40.8455 46.7442C40.5462 46.0495 40.1545 45.4009 39.6691 44.8287C39.5454 44.6811 39.4179 44.5414 39.2812 44.4029C39.4452 44.0009 39.6248 43.6107 39.8187 43.2218C40.8155 41.2219 42.7103 39.6862 44.5869 38.5986C46.6886 37.3726 48.9581 36.5131 51.1431 35.4756C53.1225 34.5317 55.1266 33.1884 55.3205 30.772C56.2991 32.6426 56.4617 35.0814 56.1143 37.1406Z" fill="#FF903F"/>
<path d="M41.2422 56.7634C39.8741 53.8511 36.2144 53.9502 30.5369 51.1878C24.8553 48.4254 26.5187 37.4078 26.4771 37.7812C26.3777 38.698 30.3865 41.0656 35.4653 42.8644C37.2052 43.4827 38.4148 44.3634 39.2566 45.3404C39.8285 46.0042 40.2286 46.7136 40.5065 47.4122C40.7374 48.0038 40.8837 48.5846 40.9656 49.1347C41.0475 49.6393 41.0743 50.1117 41.0784 50.5293C41.0784 51.5839 40.9106 52.2973 40.9106 52.2973C40.3964 51.5973 39.8741 50.9977 39.3599 50.4704C37.4925 48.5391 35.7324 47.6625 34.8289 47.3265C34.555 47.2262 34.3644 47.1713 34.2691 47.1539C34.21 47.1445 34.1778 47.1405 34.1966 47.1539C34.4141 47.2851 34.6235 47.4176 34.8289 47.5487C36.2788 48.4896 37.4012 49.4572 38.2792 50.3981C38.6054 50.7434 38.9008 51.0927 39.1653 51.4287C41.4919 54.4641 41.3241 56.9361 41.2422 56.7634Z" fill="#FF903F"/>
<mask id="mask0_2_539" style="mask-type:luminance" maskUnits="userSpaceOnUse" x="17" y="18" width="21" height="32">
<path d="M17 18H37.2349V49.8463H17V18Z" fill="white"/>
</mask>
<g mask="url(#mask0_2_539)">
<path d="M37.1634 20.2858L35.0806 23.9364L32.658 24.5941L34.0992 22.0733C27.0156 24.4589 21.5024 30.3107 19.5619 37.6304C18.5449 41.4521 18.5489 45.4846 19.5659 49.3023L17.8796 49.7611C16.7875 45.6424 16.7875 41.2943 17.8796 37.1756C19.9901 29.226 26.0078 22.8835 33.729 20.3481L31.1232 18.8364L33.5459 18.1787L37.1634 20.2858Z" fill="#FF903F"/>
</g>
<mask id="mask1_2_539" style="mask-type:luminance" maskUnits="userSpaceOnUse" x="46" y="19" width="22" height="33">
<path d="M46.6758 19.9731H67.4166V51.8831H46.6758V19.9731Z" fill="white"/>
</mask>
<g mask="url(#mask1_2_539)">
<path d="M67.3036 47.0246L66.6528 49.4685L63.0392 51.5756L60.9525 47.925L61.5993 45.4811L63.0445 48.0019C65.4078 36.411 58.4099 24.7829 46.9316 21.6773L47.3875 19.98C59.8143 23.3428 67.3707 35.9787 64.7123 48.5324L67.3036 47.0246Z" fill="#FF903F"/>
</g>
<mask id="mask2_2_539" style="mask-type:luminance" maskUnits="userSpaceOnUse" x="23" y="58" width="36" height="10">
<path d="M23.0703 58.5083H58.4814V67.772H23.0703V58.5083Z" fill="white"/>
</mask>
<g mask="url(#mask2_2_539)">
<path d="M58.1816 60.6555C53.609 65.2701 47.4186 67.7724 41.1058 67.7724C39.0362 67.7724 36.9574 67.5019 34.9154 66.9529C31.2307 65.9583 27.8398 64.082 25.0206 61.5108L25.0166 64.5448L23.2461 62.7493L23.2553 58.5352L27.4301 58.5444L29.2006 60.3359L26.3195 60.3266C28.9069 62.6499 32.0066 64.3472 35.366 65.2569C43.0423 67.3308 51.3115 65.0938 56.9551 59.413L58.1816 60.6555Z" fill="#FF903F"/>
</g>
</svg>
