<svg width="55" height="54" viewBox="0 0 55 54" fill="none" xmlns="http://www.w3.org/2000/svg">
<mask id="mask0_2_576" style="mask-type:luminance" maskUnits="userSpaceOnUse" x="0" y="0" width="55" height="54">
<path d="M0.0820312 0.090332H54.1415V53.944H0.0820312V0.090332Z" fill="white"/>
</mask>
<g mask="url(#mask0_2_576)">
<path d="M44.2392 25.2609C43.7768 23.9689 43.2186 22.6147 42.5801 21.2354C41.8949 19.7913 41.8003 18.7987 43.1898 17.4074C43.802 16.7944 44.4297 16.1741 45.0502 15.5623L41.484 11.9966L41.2384 12.242C40.6239 12.8599 40.0106 13.4741 39.3841 14.0824C39.2858 14.1961 39.1792 14.3015 39.063 14.3973C38.9456 14.4919 38.8222 14.5769 38.6905 14.6499C38.5599 14.7241 38.4233 14.7852 38.2808 14.8343C38.1382 14.8834 37.9933 14.9205 37.8447 14.9433C37.6962 14.9672 37.5465 14.978 37.3955 14.9744C37.2458 14.972 37.096 14.9552 36.9487 14.9265C36.8014 14.8966 36.6576 14.8547 36.5174 14.7996C36.3773 14.7445 36.2431 14.6774 36.1149 14.5996C34.6403 13.7878 33.0938 13.1508 31.4754 12.6886C31.3281 12.6503 31.1855 12.5988 31.0466 12.5354C30.9088 12.4719 30.7758 12.3977 30.6513 12.3103C30.5255 12.2241 30.4081 12.1283 30.2991 12.0217C30.1901 11.9151 30.0918 11.8002 30.0032 11.6757C29.9133 11.5523 29.8367 11.4218 29.7696 11.2853C29.7037 11.1476 29.6498 11.0064 29.6079 10.8591C29.5659 10.713 29.5372 10.5645 29.5216 10.4125C29.506 10.2616 29.5036 10.1095 29.5132 9.95747C29.506 9.2642 29.5084 8.57093 29.5132 7.87886V7H24.4976V9.7144C24.4976 11.599 23.6398 12.2887 22.2646 12.7916C20.8894 13.2945 19.5118 13.8561 18.1833 14.4763C16.7937 15.1324 15.7839 15.2354 14.4398 13.8932C13.8601 13.322 13.2743 12.7341 12.7077 12.1654L12.5843 12.0421L9.01688 15.603C9.5787 16.1682 10.1405 16.7321 10.7035 17.2937C12.2093 18.7987 12.1806 19.6764 11.3432 21.3946C10.7646 22.5979 10.2531 23.8312 9.8099 25.092C9.23609 26.7707 8.62036 27.5263 6.49526 27.5263H4V32.53H6.72766C8.56766 32.53 9.26484 33.3957 9.74161 34.6936C10.2483 36.0778 10.8365 37.5038 11.4942 38.9323C12.0788 40.2075 12.1878 41.2551 10.9252 42.5363L8.99292 44.4605L12.5651 48.0226C13.1832 47.3988 13.8157 46.7666 14.4494 46.1344C15.7683 44.8173 16.8081 44.9262 18.1594 45.5656C19.4519 46.1631 20.8391 46.7354 22.2742 47.2599C23.6446 47.7604 24.494 48.4524 24.494 50.3491V53H29.5156V50.3634C29.5156 48.6572 30.1326 47.8107 31.7917 47.2407C32.9836 46.8612 34.1444 46.4038 35.274 45.865C37.6327 44.6951 38.2113 44.7837 40.0441 46.6181C40.5221 47.0958 40.9953 47.5736 41.4589 48.0441L42.4064 47.0982C43.2857 46.2194 44.1578 45.3513 45.0322 44.4736L44.6944 44.136C44.1374 43.5864 43.5768 43.0308 43.0245 42.4717C42.8988 42.3675 42.785 42.2525 42.6807 42.128C42.5777 42.0035 42.4855 41.8694 42.4064 41.7281C42.3273 41.5856 42.2615 41.4383 42.2099 41.2839C42.1572 41.1306 42.1201 40.9738 42.0961 40.8121C42.0734 40.6517 42.065 40.49 42.0722 40.3284C42.0782 40.1656 42.0997 40.0051 42.1357 39.8471C42.1716 39.689 42.2219 39.5345 42.2866 39.3861C42.3513 39.2364 42.428 39.0951 42.519 38.9598C43.2761 37.6008 43.8691 36.1748 44.3003 34.6805C44.3339 34.52 44.3806 34.3644 44.4405 34.2123C44.5016 34.0614 44.5758 33.9165 44.6633 33.7777C44.7507 33.64 44.849 33.5106 44.9604 33.3909C45.0706 33.27 45.1916 33.161 45.3221 33.0628C45.4527 32.9635 45.5905 32.8784 45.7366 32.8054C45.8828 32.7312 46.0337 32.6725 46.1906 32.6258C46.3476 32.5803 46.5081 32.5492 46.671 32.5324C46.8327 32.5156 46.9956 32.5133 47.1585 32.5264H50V27.5227H47.3622C45.6444 27.5059 44.831 26.9144 44.2392 25.2609ZM27 44.7981C26.5148 44.7981 26.0309 44.7754 25.5493 44.7275C25.0666 44.6796 24.5874 44.6089 24.1118 44.5143C23.6362 44.4198 23.1655 44.3024 22.7019 44.1623C22.2383 44.021 21.7819 43.8582 21.3339 43.6726C20.8858 43.487 20.4474 43.2799 20.0197 43.0524C19.5921 42.8237 19.1776 42.5746 18.7739 42.3052C18.3702 42.0358 17.9821 41.7473 17.6071 41.4407C17.2322 41.133 16.8728 40.8073 16.5302 40.4649C16.1876 40.1224 15.8618 39.7632 15.5539 39.3885C15.246 39.0149 14.9585 38.6257 14.689 38.2222C14.4195 37.8199 14.1703 37.4044 13.9415 36.977C13.7127 36.5495 13.5055 36.1125 13.3198 35.6647C13.1341 35.2169 12.9712 34.7607 12.831 34.2973C12.6897 33.8327 12.5723 33.3634 12.4777 32.888C12.383 32.4127 12.3111 31.9337 12.2644 31.4512C12.2165 30.9687 12.1926 30.4849 12.1926 30.0012C12.1926 29.5163 12.2165 29.0325 12.2644 28.55C12.3111 28.0675 12.383 27.5885 12.4777 27.1132C12.5723 26.6378 12.6897 26.1685 12.8298 25.7051C12.9712 25.2405 13.1341 24.7855 13.3198 24.3377C13.5055 23.8899 13.7127 23.4517 13.9403 23.0242C14.1691 22.5968 14.4183 22.1813 14.6878 21.779C14.9573 21.3754 15.246 20.9875 15.5539 20.6127C15.8606 20.238 16.1864 19.8788 16.529 19.5363C16.8716 19.1939 17.231 18.8682 17.6059 18.5605C17.9809 18.2539 18.369 17.9654 18.7727 17.696C19.1764 17.4266 19.5909 17.1775 20.0185 16.9488C20.4462 16.7201 20.8846 16.5142 21.3327 16.3286C21.7807 16.143 22.2371 15.9802 22.7007 15.8389C23.1643 15.6988 23.6351 15.5802 24.1106 15.4857C24.5862 15.3911 25.0654 15.3204 25.5469 15.2725C26.0297 15.2258 26.5136 15.2019 26.9988 15.2019C27.484 15.2019 27.9667 15.2258 28.4495 15.2737C28.9322 15.3204 29.4114 15.3923 29.887 15.4869C30.3626 15.5814 30.8321 15.6988 31.2969 15.8389C31.7605 15.9802 32.2169 16.143 32.6649 16.3286C33.113 16.5142 33.5502 16.7213 33.9779 16.95C34.4055 17.1787 34.8212 17.4266 35.2249 17.696C35.6274 17.9654 36.0167 18.2539 36.3917 18.5617C36.7666 18.8694 37.1248 19.1939 37.4674 19.5375C37.8112 19.88 38.1358 20.2392 38.4437 20.6127C38.7516 20.9875 39.0391 21.3766 39.3086 21.7802C39.5781 22.1825 39.8273 22.5979 40.0561 23.0254C40.2849 23.4529 40.4909 23.8911 40.6766 24.3389C40.8623 24.7867 41.0252 25.2417 41.1666 25.7063C41.3067 26.1697 41.4241 26.639 41.5187 27.1144C41.6134 27.5909 41.6841 28.0687 41.732 28.5512C41.7799 29.0337 41.8039 29.5175 41.8027 30.0024C41.8027 30.4861 41.7787 30.9699 41.7308 31.4524C41.6817 31.9337 41.611 32.4127 41.5152 32.888C41.4205 33.3622 41.3031 33.8315 41.1618 34.2949C41.0204 34.7583 40.8575 35.2145 40.6718 35.6611C40.4861 36.1089 40.2789 36.5459 40.0501 36.9734C39.8213 37.4009 39.5721 37.8151 39.3026 38.2186C39.0331 38.621 38.7456 39.0089 38.4377 39.3837C38.1298 39.7584 37.8052 40.1165 37.4626 40.4589C37.12 40.8013 36.7606 41.127 36.3857 41.4347C36.0119 41.7413 35.6226 42.0298 35.2201 42.2992C34.8176 42.5686 34.4019 42.8177 33.9743 43.0464C33.5478 43.2751 33.1094 43.481 32.6626 43.6678C32.2145 43.8534 31.7593 44.0162 31.2945 44.1575C30.8309 44.2976 30.3626 44.4162 29.887 44.5107C29.4114 44.6065 28.9322 44.6772 28.4507 44.7251C27.9679 44.773 27.4852 44.7981 27 44.7981ZM27 17.2314C26.5819 17.2314 26.1639 17.2518 25.7482 17.2925C25.3313 17.3332 24.918 17.3942 24.5071 17.4757C24.0974 17.5571 23.6914 17.6589 23.2913 17.7798C22.8911 17.9019 22.497 18.042 22.1101 18.2025C21.7244 18.3617 21.3458 18.5413 20.9769 18.7377C20.6079 18.9352 20.2497 19.1496 19.9011 19.3819C19.5538 19.6141 19.2183 19.8632 18.8949 20.1278C18.5715 20.3936 18.2612 20.6738 17.9653 20.9695C17.6694 21.2653 17.3891 21.5754 17.1232 21.8987C16.8572 22.222 16.6093 22.5572 16.3769 22.9045C16.1433 23.2529 15.9289 23.6109 15.7312 23.9797C15.5347 24.3485 15.3551 24.7257 15.1957 25.1124C15.0352 25.4991 14.8939 25.8919 14.7729 26.2918C14.6519 26.6929 14.5501 27.0976 14.4674 27.5083C14.3859 27.9178 14.3248 28.3309 14.2841 28.7476C14.2422 29.163 14.2218 29.5809 14.2218 29.9988C14.2218 30.4167 14.2422 30.8346 14.2829 31.2512C14.3248 31.6667 14.3859 32.0798 14.4674 32.4905C14.5489 32.9 14.6507 33.3059 14.7717 33.7058C14.8927 34.1057 15.034 34.4997 15.1945 34.8864C15.3539 35.272 15.5323 35.6503 15.73 36.0191C15.9277 36.3879 16.1421 36.7459 16.3745 37.0943C16.6069 37.4416 16.856 37.7768 17.1208 38.1001C17.3867 38.4234 17.667 38.7335 17.9629 39.0293C18.2588 39.325 18.5679 39.6052 18.8913 39.871C19.2147 40.1368 19.5514 40.3847 19.8988 40.6181C20.2461 40.8504 20.6055 41.0648 20.9745 41.2623C21.3434 41.4587 21.7208 41.6383 22.1077 41.7975C22.4934 41.958 22.8876 42.0993 23.2877 42.2202C23.6878 42.3423 24.0939 42.4429 24.5035 42.5255C24.9144 42.607 25.3277 42.668 25.7446 42.7087C26.1603 42.7494 26.5783 42.771 26.9964 42.771C27.4145 42.771 27.8326 42.7506 28.2482 42.7087C28.6651 42.668 29.0784 42.607 29.4893 42.5255C29.899 42.4441 30.3051 42.3423 30.7052 42.2214C31.1053 42.0993 31.4994 41.9592 31.8851 41.7987C32.272 41.6395 32.6506 41.4611 33.0195 41.2635C33.3885 41.066 33.7467 40.8516 34.0941 40.6193C34.4427 40.3871 34.7781 40.138 35.1015 39.8734C35.4249 39.6076 35.7352 39.3274 36.0311 39.0317C36.327 38.7359 36.6073 38.4258 36.8732 38.1025C37.138 37.7792 37.3871 37.444 37.6195 37.0967C37.8519 36.7483 38.0676 36.3903 38.264 36.0215C38.4617 35.6527 38.6402 35.2755 38.8007 34.8888C38.9612 34.5021 39.1014 34.1093 39.2235 33.7094C39.3445 33.3083 39.4464 32.9036 39.5278 32.4929C39.6093 32.0834 39.6716 31.6703 39.7123 31.2536C39.753 30.8382 39.7734 30.4203 39.7734 30.0024C39.7734 29.5845 39.753 29.1666 39.7111 28.7512C39.6692 28.3345 39.6081 27.9226 39.5266 27.5119C39.444 27.1024 39.3421 26.6977 39.2211 26.2966C39.099 25.8967 38.9576 25.5039 38.7983 25.1184C38.6378 24.7316 38.4593 24.3545 38.2616 23.9857C38.064 23.6169 37.8495 23.2589 37.6171 22.9117C37.3847 22.5644 37.1356 22.228 36.8696 21.9059C36.6049 21.5826 36.3246 21.2725 36.0287 20.9767C35.7328 20.681 35.4237 20.4008 35.1003 20.1362C34.7769 19.8704 34.4415 19.6213 34.0941 19.389C33.7455 19.1567 33.3873 18.9424 33.0195 18.7449C32.6506 18.5473 32.2732 18.3689 31.8863 18.2084C31.5006 18.048 31.1065 17.9079 30.7064 17.7858C30.3062 17.6636 29.9014 17.5619 29.4917 17.4805C29.0808 17.3978 28.6675 17.3368 28.2518 17.2949C27.8349 17.2542 27.4181 17.2326 27 17.2326V17.2314ZM35.0404 25.5602L24.7 35.9042C24.4964 36.1089 24.2508 36.2107 23.9621 36.2107H23.9597C23.6722 36.2119 23.4266 36.1113 23.2242 35.9078C23.1822 35.8658 23.1439 35.8215 23.1092 35.7725L18.853 30.7148C18.8074 30.6597 18.7691 30.6011 18.7356 30.5376C18.7032 30.4742 18.6769 30.4083 18.6577 30.34C18.6385 30.2718 18.6266 30.2024 18.6206 30.1317C18.6158 30.0599 18.6182 29.9892 18.6278 29.9186C18.6361 29.8491 18.6529 29.7797 18.6769 29.7126C18.6996 29.6456 18.7296 29.5809 18.7667 29.5199C18.8027 29.4588 18.8458 29.4025 18.8937 29.3498C18.9416 29.2984 18.9943 29.2505 19.0518 29.2097C19.1093 29.1678 19.1716 29.1331 19.2363 29.1032C19.301 29.0744 19.3681 29.0529 19.4376 29.0373C19.507 29.0218 19.5777 29.0134 19.6484 29.0134C19.7203 29.0122 19.7909 29.0182 19.8604 29.0313C19.9299 29.0457 19.9982 29.0661 20.0641 29.0936C20.1287 29.1199 20.191 29.1547 20.2497 29.1942C20.3084 29.2337 20.3635 29.2804 20.4127 29.3307C20.4618 29.3822 20.5061 29.4372 20.5432 29.4983L24.0795 33.5741L33.5622 24.0899C33.6604 23.9953 33.7742 23.921 33.9012 23.8695C34.0282 23.8181 34.1611 23.7929 34.2989 23.7917C34.4355 23.7917 34.5684 23.8169 34.6966 23.8671C34.8236 23.9174 34.9374 23.9905 35.0368 24.0851C35.1351 24.1832 35.2105 24.2958 35.2632 24.4239C35.3159 24.5508 35.3435 24.6837 35.3435 24.8226C35.3435 24.9603 35.3171 25.0932 35.2644 25.2214C35.2117 25.3495 35.1374 25.462 35.0404 25.5602Z" fill="#FF903F"/>
</g>
</svg>
