<svg width="22" height="22" viewBox="0 0 22 22" fill="none" xmlns="http://www.w3.org/2000/svg">
<path d="M19.7093 19.25V16.8055C19.7093 15.5089 19.2506 14.2654 18.434 13.3485C17.6175 12.4317 16.51 11.9166 15.3552 11.9166H6.64683C5.49203 11.9166 4.38453 12.4317 3.56797 13.3485C2.7514 14.2654 2.29266 15.5089 2.29266 16.8055V19.25" stroke="white" stroke-width="2" stroke-linecap="round" stroke-linejoin="round"/>
<path d="M11 10.0834C13.2782 10.0834 15.125 8.23655 15.125 5.95837C15.125 3.6802 13.2782 1.83337 11 1.83337C8.72183 1.83337 6.875 3.6802 6.875 5.95837C6.875 8.23655 8.72183 10.0834 11 10.0834Z" stroke="white" stroke-width="2" stroke-linecap="round" stroke-linejoin="round"/>
<path d="M2.29266 19.25H19.7093" stroke="white" stroke-width="2"/>
</svg>
