<svg width="20" height="20" viewBox="0 0 20 20" fill="none" xmlns="http://www.w3.org/2000/svg">
<path d="M12.2563 4.80252C12.0731 4.9894 11.9705 5.24065 11.9705 5.50234C11.9705 5.76402 12.0731 6.01527 12.2563 6.20215L13.8559 7.80174C14.0428 7.98492 14.294 8.08752 14.5557 8.08752C14.8174 8.08752 15.0686 7.98492 15.2555 7.80174L19.0245 4.03272C19.5272 5.14362 19.6795 6.38134 19.4609 7.58094C19.2423 8.78054 18.6633 9.88504 17.8011 10.7472C16.9389 11.6095 15.8344 12.1884 14.6348 12.407C13.4352 12.6256 12.1975 12.4734 11.0866 11.9706L4.17842 18.8788C3.7807 19.2766 3.24127 19.5 2.67881 19.5C2.11635 19.5 1.57692 19.2766 1.1792 18.8788C0.781482 18.4811 0.558044 17.9417 0.558044 17.3792C0.558044 16.8168 0.781482 16.2773 1.1792 15.8796L8.0874 8.97143C7.58469 7.86053 7.43248 6.62281 7.65105 5.42321C7.86962 4.22361 8.44859 3.11911 9.3108 2.2569C10.173 1.3947 11.2775 0.815728 12.4771 0.597159C13.6767 0.378589 14.9144 0.530799 16.0253 1.0335L12.2663 4.79252L12.2563 4.80252Z" fill="#FF903F"/>
</svg>
