<svg width="16" height="20" viewBox="0 0 16 20" fill="none" xmlns="http://www.w3.org/2000/svg">
<path d="M12.3214 0H3.23675C1.60284 0 0.279053 1.39873 0.279053 3.12513V12.0754C0.279053 16.4519 3.63709 20 7.77905 20C11.921 20 15.2791 16.4519 15.2791 12.0754V3.12513C15.2791 1.39873 13.9553 0 12.3214 0ZM6.01104 15.7814C6.01104 15.9877 5.85278 16.1554 5.65754 16.1554C5.4623 16.1554 5.30403 15.9877 5.30403 15.7814V12.7896C5.30403 12.5834 5.4623 12.4161 5.65754 12.4161C5.85278 12.4161 6.01104 12.5834 6.01104 12.7896V15.7814ZM8.13256 16.9035C8.13256 17.1098 7.97429 17.277 7.77905 17.277C7.58381 17.277 7.42555 17.1098 7.42555 16.9035V11.6681C7.42555 11.4618 7.58381 11.2945 7.77905 11.2945C7.97429 11.2945 8.13256 11.4618 8.13256 11.6681V16.9035ZM10.2541 15.7814C10.2541 15.9877 10.0958 16.1554 9.90057 16.1554C9.70533 16.1554 9.54706 15.9877 9.54706 15.7814V12.7896C9.54706 12.5834 9.70533 12.4161 9.90057 12.4161C10.0958 12.4161 10.2541 12.5834 10.2541 12.7896V15.7814ZM12.9702 8.26214C12.9702 8.84559 12.5205 9.32069 11.9688 9.32069H3.67801C3.12631 9.32069 2.67617 8.84663 2.67617 8.26214V4.18994C2.67617 3.60648 3.12533 3.13138 3.67801 3.13138H11.9688C12.5205 3.13138 12.9702 3.60544 12.9702 4.18994V8.26214Z" fill="#FF903F"/>
</svg>
