<svg width="12" height="19" viewBox="0 0 12 19" fill="none" xmlns="http://www.w3.org/2000/svg">
<path d="M5.49974 16C6.37908 16 6.99994 16.6353 6.99994 17.4998C6.99994 18.3647 6.37908 19 5.49974 19C4.62039 19 3.99994 18.3647 3.99994 17.4998C3.99994 16.6353 4.6208 16 5.49974 16Z" fill="#FF903F"/>
<path d="M5.83853 0.5C3.27762 0.5 1.2776 1.83485 0.40493 3.84836C-0.016805 4.8221 0.672916 5.9261 1.69676 5.9261C2.38992 5.9261 3.21235 5.39656 3.54905 4.76372C4.00428 3.90675 4.7683 3.36194 5.71269 3.36194C6.92679 3.36194 7.84713 4.25708 7.84713 5.41497C7.84713 6.46372 7.03115 7.05345 6.19412 7.64317C4.81296 8.6259 4.10177 9.74022 4.10177 12.0556C4.10177 12.1503 4.11036 12.2442 4.12839 12.3372C4.146 12.4301 4.1722 12.5204 4.20699 12.608C4.24177 12.696 4.28429 12.7791 4.33497 12.8577C4.38521 12.9368 4.44276 13.01 4.50718 13.0769C4.57117 13.1438 4.64118 13.2036 4.71676 13.2566C4.79235 13.3091 4.8718 13.3536 4.95597 13.39C5.03972 13.4263 5.12647 13.4537 5.21537 13.4722C5.3047 13.4906 5.39446 13.5 5.4855 13.5H5.61048C5.70153 13.5 5.79128 13.4906 5.88061 13.4722C5.96951 13.4537 6.05626 13.4263 6.14001 13.39C6.22419 13.3536 6.30364 13.3091 6.37922 13.2566C6.45481 13.2036 6.52481 13.1438 6.5888 13.0769C6.65322 13.01 6.71077 12.9368 6.76102 12.8582C6.81169 12.7791 6.85421 12.696 6.889 12.608C6.92378 12.5204 6.94998 12.4301 6.96759 12.3372C6.9852 12.2442 6.99422 12.1503 6.99422 12.0556H6.98949C6.98949 10.4391 7.59633 9.76178 8.72582 9.08492C10.1907 8.18888 11.279 7.07501 11.279 5.15267C11.279 2.44434 8.9354 0.5 5.83853 0.5Z" fill="#FF903F"/>
</svg>
